<?xml version="1.0" encoding="UTF-8" standalone="no"?>
<!-- Created with Inkscape (http://www.inkscape.org/) -->

<svg
   xmlns:dc="http://purl.org/dc/elements/1.1/"
   xmlns:cc="http://creativecommons.org/ns#"
   xmlns:rdf="http://www.w3.org/1999/02/22-rdf-syntax-ns#"
   xmlns:svg="http://www.w3.org/2000/svg"
   xmlns="http://www.w3.org/2000/svg"
   xmlns:xlink="http://www.w3.org/1999/xlink"
   xmlns:sodipodi="http://sodipodi.sourceforge.net/DTD/sodipodi-0.dtd"
   xmlns:inkscape="http://www.inkscape.org/namespaces/inkscape"
   width="256"
   height="256"
   id="svg2"
   version="1.1"
   inkscape:version="0.48.4 r9939"
   sodipodi:docname="icon.svg"
   inkscape:export-filename="C:\Users\mvchandler\Dropbox\Programming\graph3\icons\icon_128.png"
   inkscape:export-xdpi="45"
   inkscape:export-ydpi="45">
  <defs
     id="defs4">
    <linearGradient
       inkscape:collect="always"
       id="linearGradient3845">
      <stop
         style="stop-color:#7d7d7d;stop-opacity:1;"
         offset="0"
         id="stop3847" />
      <stop
         style="stop-color:#7d7d7d;stop-opacity:0;"
         offset="1"
         id="stop3849" />
    </linearGradient>
    <marker
       inkscape:stockid="Arrow1Mend"
       orient="auto"
       refY="0.0"
       refX="0.0"
       id="Arrow1Mend"
       style="overflow:visible;">
      <path
         id="path3778"
         d="M 0.0,0.0 L 5.0,-5.0 L -12.5,0.0 L 5.0,5.0 L 0.0,0.0 z "
         style="fill-rule:evenodd;stroke:#000000;stroke-width:1.0pt;"
         transform="scale(0.4) rotate(180) translate(10,0)" />
    </marker>
    <marker
       inkscape:stockid="Arrow1Send"
       orient="auto"
       refY="0.0"
       refX="0.0"
       id="Arrow1Send"
       style="overflow:visible;">
      <path
         id="path3784"
         d="M 0.0,0.0 L 5.0,-5.0 L -12.5,0.0 L 5.0,5.0 L 0.0,0.0 z "
         style="fill-rule:evenodd;stroke:#000000;stroke-width:1.0pt;"
         transform="scale(0.2) rotate(180) translate(6,0)" />
    </marker>
    <marker
       inkscape:stockid="Arrow1Mstart"
       orient="auto"
       refY="0.0"
       refX="0.0"
       id="Arrow1Mstart"
       style="overflow:visible">
      <path
         id="path3775"
         d="M 0.0,0.0 L 5.0,-5.0 L -12.5,0.0 L 5.0,5.0 L 0.0,0.0 z "
         style="fill-rule:evenodd;stroke:#000000;stroke-width:1.0pt"
         transform="scale(0.4) translate(10,0)" />
    </marker>
    <marker
       inkscape:stockid="Arrow1Lend"
       orient="auto"
       refY="0.0"
       refX="0.0"
       id="Arrow1Lend"
       style="overflow:visible;">
      <path
         id="path3772"
         d="M 0.0,0.0 L 5.0,-5.0 L -12.5,0.0 L 5.0,5.0 L 0.0,0.0 z "
         style="fill-rule:evenodd;stroke:#000000;stroke-width:1.0pt;"
         transform="scale(0.8) rotate(180) translate(12.5,0)" />
    </marker>
    <marker
       inkscape:stockid="Arrow1Lstart"
       orient="auto"
       refY="0.0"
       refX="0.0"
       id="Arrow1Lstart"
       style="overflow:visible">
      <path
         id="path3769"
         d="M 0.0,0.0 L 5.0,-5.0 L -12.5,0.0 L 5.0,5.0 L 0.0,0.0 z "
         style="fill-rule:evenodd;stroke:#000000;stroke-width:1.0pt"
         transform="scale(0.8) translate(12.5,0)" />
    </marker>
    <linearGradient
       inkscape:collect="always"
       xlink:href="#linearGradient3845"
       id="linearGradient3851"
       x1="-2.5"
       y1="128"
       x2="258.5"
       y2="128"
       gradientUnits="userSpaceOnUse" />
  </defs>
  <sodipodi:namedview
     id="base"
     pagecolor="#ffffff"
     bordercolor="#666666"
     borderopacity="1.0"
     inkscape:pageopacity="0.0"
     inkscape:pageshadow="2"
     inkscape:zoom="2.6129032"
     inkscape:cx="116.97568"
     inkscape:cy="164.17105"
     inkscape:document-units="px"
     inkscape:current-layer="layer1"
     showgrid="true"
     objecttolerance="10000"
     inkscape:window-width="1920"
     inkscape:window-height="1148"
     inkscape:window-x="-8"
     inkscape:window-y="525"
     inkscape:window-maximized="1">
    <inkscape:grid
       type="xygrid"
       id="grid2985"
       empspacing="4"
       visible="true"
       enabled="true"
       snapvisiblegridlinesonly="true"
       dotted="false" />
  </sodipodi:namedview>
  <metadata
     id="metadata7">
    <rdf:RDF>
      <cc:Work
         rdf:about="">
        <dc:format>image/svg+xml</dc:format>
        <dc:type
           rdf:resource="http://purl.org/dc/dcmitype/StillImage" />
        <dc:title></dc:title>
      </cc:Work>
    </rdf:RDF>
  </metadata>
  <g
     inkscape:label="Layer 1"
     inkscape:groupmode="layer"
     id="layer1"
     transform="translate(0,-796.36218)">
    <g
       id="g3963"
       style="fill:#338033;fill-opacity:1">
      <path
         transform="matrix(1.4632558,0,0,0.98982591,-55.23267,796.87295)"
         d="m 152,86 c 0,5.522847 -14.32689,10 -32,10 -17.67311,0 -32,-4.477153 -32,-10 0,-5.522847 14.32689,-10 32,-10 17.67311,0 32,4.477153 32,10 z"
         sodipodi:ry="10"
         sodipodi:rx="32"
         sodipodi:cy="86"
         sodipodi:cx="120"
         id="path3850-7"
         style="fill:#338033;fill-opacity:1;stroke:#000000;stroke-opacity:1"
         sodipodi:type="arc" />
      <path
         sodipodi:nodetypes="ccc"
         inkscape:connector-curvature="0"
         id="path3852-4"
         d="m 73.200899,881.73592 c 0,56.58845 17.62606,91.95623 47.002801,91.95623 29.37675,0 47.0028,-35.36778 47.0028,-91.95623"
         style="fill:#338033;fill-opacity:1;stroke:#000000;stroke-width:1.61166893999999990px;stroke-linecap:butt;stroke-linejoin:miter;stroke-opacity:1" />
    </g>
    <path
       style="fill:none;stroke:#000000;stroke-width:3;stroke-linecap:butt;stroke-linejoin:miter;stroke-miterlimit:4;stroke-opacity:1;stroke-dasharray:none;marker-start:url(#Arrow1Mstart);marker-mid:none;marker-end:url(#Arrow1Mend)"
       d="m 208,932.36218 -88,0 0,-88"
       id="path2989"
       inkscape:connector-curvature="0"
       sodipodi:nodetypes="ccc" />
    <path
       style="fill:none;stroke:#000000;stroke-width:3;stroke-linecap:butt;stroke-linejoin:miter;stroke-miterlimit:4;stroke-opacity:1;stroke-dasharray:none;marker-end:url(#Arrow1Mend)"
       d="m 120,932.36218 -56,56"
       id="path2995"
       inkscape:connector-curvature="0"
       sodipodi:nodetypes="cc" />
    <g
       transform="translate(-25.703125,781.80584)"
       style="font-size:40px;font-style:italic;font-variant:normal;font-weight:bold;font-stretch:normal;text-align:center;line-height:125%;letter-spacing:0px;word-spacing:0px;text-anchor:middle;fill:#000000;fill-opacity:1;stroke:none;font-family:DejaVu Serif;-inkscape-font-specification:DejaVu Serif Bold Italic"
       id="flowRoot5895">
      <path
         d="m 129.76562,54.556344 0.52735,-2.753907 22.01172,-23.730468 -13.96485,0 -0.83984,4.355468 -2.67578,0 1.36719,-7.03125 25.3125,0 -0.52735,2.753907 -21.8164,23.730468 14.72656,0 0.78125,-4.082031 2.67578,0 -1.30859,6.757813 -26.26954,0"
         id="path3027"
         style="" />
    </g>
    <g
       transform="translate(-101.70313,969.80584)"
       style="font-size:40px;font-style:italic;font-variant:normal;font-weight:bold;font-stretch:normal;text-align:center;line-height:125%;letter-spacing:0px;word-spacing:0px;text-anchor:middle;fill:#000000;fill-opacity:1;stroke:none;font-family:DejaVu Serif;-inkscape-font-specification:DejaVu Serif Bold Italic"
       id="flowRoot5895-2">
      <path
         d="m 143.125,43.325875 -7.8125,8.867187 3.59375,0 -0.44922,2.363282 -10.35156,0 0.44922,-2.363282 3.59375,0 9.84375,-11.152343 -6.52344,-13.28125 -2.67578,0 0.44922,-2.363282 14.49218,0 -0.44921,2.363282 -3.20313,0 4.04297,8.203125 7.1875,-8.203125 -3.39844,0 0.44922,-2.363282 10.15625,0 -0.44922,2.363282 -3.59375,0 -9.25781,10.46875 6.85547,13.964843 2.7539,0 -0.44921,2.363282 -14.55079,0 0.44922,-2.363282 3.24219,0 -4.39453,-8.867187"
         id="path3033"
         style="" />
    </g>
    <g
       transform="translate(78.296875,892.38591)"
       style="font-size:40px;font-style:italic;font-variant:normal;font-weight:bold;font-stretch:normal;text-align:center;line-height:125%;letter-spacing:0px;word-spacing:0px;text-anchor:middle;fill:#000000;fill-opacity:1;stroke:none;font-family:DejaVu Serif;-inkscape-font-specification:DejaVu Serif Bold Italic"
       id="flowRoot5895-2-3">
      <path
         d="m 135.44922,54.556344 0.44922,-2.363282 3.92578,0 1.89453,-9.707031 -5.80078,-14.726562 -2.48047,0 0.44922,-2.363282 13.98437,0 -0.44922,2.363282 -3.24218,0 4.39453,11.113281 8.6914,-11.113281 -2.91015,0 0.44922,-2.363282 8.35937,0 -0.44922,2.363282 -2.48047,0 -10.76171,13.710937 -2.08985,10.722656 3.92578,0 -0.44922,2.363282 -15.41015,0"
         id="path3030"
         style="" />
    </g>
    <path
       style="fill:none;stroke:#000000;stroke-width:2;stroke-linecap:butt;stroke-linejoin:miter;stroke-opacity:1;stroke-miterlimit:4;stroke-dasharray:none"
       d="m 140,128 0,16"
       id="path6002"
       inkscape:connector-curvature="0"
       transform="translate(0,796.36218)" />
    <path
       style="fill:none;stroke:#000000;stroke-width:2;stroke-linecap:butt;stroke-linejoin:miter;stroke-opacity:1;stroke-miterlimit:4;stroke-dasharray:none"
       d="m 160,128 0,16"
       id="path6004"
       inkscape:connector-curvature="0"
       sodipodi:nodetypes="cc"
       transform="translate(0,796.36218)" />
    <path
       style="fill:none;stroke:#000000;stroke-width:2;stroke-linecap:butt;stroke-linejoin:miter;stroke-opacity:1;stroke-miterlimit:4;stroke-dasharray:none"
       d="m 180,128 0,16"
       id="path6006"
       inkscape:connector-curvature="0"
       transform="translate(0,796.36218)" />
    <path
       style="fill:none;stroke:#000000;stroke-width:2;stroke-linecap:butt;stroke-linejoin:miter;stroke-opacity:1;stroke-miterlimit:4;stroke-dasharray:none"
       d="m 128,116 -16,0"
       id="path6008"
       inkscape:connector-curvature="0"
       transform="translate(0,796.36218)" />
    <path
       style="fill:none;stroke:#000000;stroke-width:2;stroke-linecap:butt;stroke-linejoin:miter;stroke-opacity:1;stroke-miterlimit:4;stroke-dasharray:none"
       d="m 128,96 -16,0"
       id="path6010"
       inkscape:connector-curvature="0"
       transform="translate(0,796.36218)" />
    <path
       style="fill:none;stroke:#000000;stroke-width:2;stroke-linecap:butt;stroke-linejoin:miter;stroke-opacity:1;stroke-miterlimit:4;stroke-dasharray:none"
       d="m 128,76 -16,0"
       id="path6012"
       inkscape:connector-curvature="0"
       transform="translate(0,796.36218)" />
    <path
       style="fill:none;stroke:#000000;stroke-width:2;stroke-linecap:butt;stroke-linejoin:miter;stroke-miterlimit:4;stroke-opacity:1;stroke-dasharray:none"
       d="m 108,140 0,16"
       id="path6014"
       inkscape:connector-curvature="0"
       sodipodi:nodetypes="cc"
       transform="translate(0,796.36218)" />
    <path
       style="fill:none;stroke:#000000;stroke-width:2;stroke-linecap:butt;stroke-linejoin:miter;stroke-miterlimit:4;stroke-opacity:1;stroke-dasharray:none"
       d="m 84,180 0,-16"
       id="path6016"
       inkscape:connector-curvature="0"
       sodipodi:nodetypes="cc"
       transform="translate(0,796.36218)" />
    <path
       style="fill:none;stroke:#000000;stroke-width:2;stroke-linecap:butt;stroke-linejoin:miter;stroke-miterlimit:4;stroke-opacity:1;stroke-dasharray:none"
       d="m 96,168 0,-16"
       id="path6018"
       inkscape:connector-curvature="0"
       sodipodi:nodetypes="cc"
       transform="translate(0,796.36218)" />
    <g
       id="g3954">
      <path
         transform="matrix(1.4632558,0,0,0.98982591,-55.590694,797.23715)"
         d="m 152,86 c 0,5.522847 -14.32689,10 -32,10 -17.67311,0 -32,-4.477153 -32,-10 0,-5.522847 14.32689,-10 32,-10 17.67311,0 32,4.477153 32,10 z"
         sodipodi:ry="10"
         sodipodi:rx="32"
         sodipodi:cy="86"
         sodipodi:cx="120"
         id="path3850"
         style="fill:none;stroke:#000000;stroke-opacity:1"
         sodipodi:type="arc" />
      <path
         sodipodi:nodetypes="ccc"
         inkscape:connector-curvature="0"
         id="path3852"
         d="m 72.997192,880.66802 c 0,56.58845 17.626061,91.95623 47.002808,91.95623 29.37675,0 47.0028,-35.36778 47.0028,-91.95623"
         style="fill:none;stroke:#000000;stroke-width:1.61166894px;stroke-linecap:butt;stroke-linejoin:miter;stroke-opacity:1" />
      <path
         transform="matrix(1.311614,0,0,0.98844807,-36.74034,822.26535)"
         d="m 148,122 c 0,3.31371 -12.53603,6 -28,6 -15.46397,0 -28,-2.68629 -28,-6 0,-3.31371 12.53603,-6 28,-6 15.46397,0 28,2.68629 28,6 z"
         sodipodi:ry="6"
         sodipodi:rx="28"
         sodipodi:cy="122"
         sodipodi:cx="120"
         id="path3854"
         style="fill:none;stroke:#000000;stroke-opacity:1"
         sodipodi:type="arc" />
      <path
         transform="matrix(1.5691006,0,0,0.97999622,-68.404176,810.62378)"
         d="m 148,110 c 0,3.31371 -12.53603,6 -28,6 -15.46397,0 -28,-2.68629 -28,-6 0,-3.31371 12.53603,-6 28,-6 15.46397,0 28,2.68629 28,6 z"
         sodipodi:ry="6"
         sodipodi:rx="28"
         sodipodi:cy="110"
         sodipodi:cx="120"
         id="path3856"
         style="fill:none;stroke:#000000;stroke-opacity:1"
         sodipodi:type="arc" />
      <path
         sodipodi:nodetypes="ccc"
         inkscape:connector-curvature="0"
         id="path3866"
         d="m 88,888.36218 c 0,28 8,84 32,84 24,0 32,-56 32,-84"
         style="fill:none;stroke:#000000;stroke-width:1px;stroke-linecap:butt;stroke-linejoin:miter;stroke-opacity:1" />
      <path
         inkscape:connector-curvature="0"
         id="path3868"
         d="m 120,892.36218 0,80"
         style="fill:none;stroke:#000000;stroke-width:1px;stroke-linecap:butt;stroke-linejoin:miter;stroke-opacity:1" />
      <path
         sodipodi:nodetypes="ccc"
         inkscape:connector-curvature="0"
         id="path3880"
         d="m 100,872.36218 c 0,36 4,100 20,100 16,0 20,-64 20,-100"
         style="fill:none;stroke:#000000;stroke-width:1px;stroke-linecap:butt;stroke-linejoin:miter;stroke-opacity:1" />
    </g>
  </g>
</svg>
